<svg width="111" height="111" viewBox="0 0 111 111" fill="none" xmlns="http://www.w3.org/2000/svg">
<g opacity="0.5">
<path opacity="0.5" d="M55.5 111C86.1518 111 111 86.1518 111 55.5C111 24.8482 86.1518 0 55.5 0C24.8482 0 0 24.8482 0 55.5C0 86.1518 24.8482 111 55.5 111Z" fill="url(#paint0_linear)"/>
</g>
<path d="M109.438 55.1455C109.438 84.8747 85.3374 108.975 55.6081 108.975C25.8789 108.975 1.77856 84.8747 1.77856 55.1455C1.77856 25.4162 25.8789 1.31592 55.6081 1.31592C85.3374 1.31592 109.438 25.4162 109.438 55.1455Z" fill="#F4F3EE" stroke="#5700B8"/>
<path d="M55.6591 109.69C66.2751 109.707 76.6613 106.599 85.5226 100.752C83.5204 89.8114 75.9015 89.188 75.9015 89.188H33.8869C33.8869 89.188 26.6973 89.778 24.4519 99.8427C33.5878 106.269 44.4894 109.709 55.6591 109.69Z" fill="#5700B8"/>
<path d="M55.0818 80.2238C69.5645 80.2238 81.3051 68.4832 81.3051 54.0005C81.3051 39.5177 69.5645 27.7771 55.0818 27.7771C40.599 27.7771 28.8584 39.5177 28.8584 54.0005C28.8584 68.4832 40.599 80.2238 55.0818 80.2238Z" fill="#333333"/>
<path opacity="0.1" d="M46.6184 75.8428H63.4211V89.2852C63.4211 91.5128 62.5364 93.6493 60.9615 95.2247C59.3866 96.8002 57.2505 97.6857 55.0229 97.6866C52.7947 97.6866 50.6578 96.8014 49.0823 95.2259C47.5067 93.6503 46.6216 91.5134 46.6216 89.2852V75.8428H46.6184Z" fill="black"/>
<path d="M47.1511 75.2192H62.8947C63.036 75.2192 63.1715 75.2754 63.2714 75.3753C63.3713 75.4752 63.4274 75.6107 63.4274 75.752V88.6617C63.4276 89.7654 63.2104 90.8583 62.7881 91.878C62.3658 92.8976 61.7467 93.8241 60.9662 94.6045C60.1857 95.3848 59.2591 96.0037 58.2393 96.4259C57.2195 96.848 56.1266 97.065 55.0229 97.0646C52.7947 97.0646 50.6578 96.1795 49.0823 94.6039C47.5067 93.0284 46.6216 90.8914 46.6216 88.6633V75.752C46.6216 75.6112 46.6773 75.4762 46.7765 75.3764C46.8757 75.2766 47.0104 75.2201 47.1511 75.2192Z" fill="#FDB797"/>
<path opacity="0.1" d="M46.6487 82.1877C52.064 84.211 58.025 84.2273 63.4513 82.2339V80.1665H46.6487V82.1877Z" fill="black"/>
<path d="M55.0818 83.312C68.3833 83.312 79.1662 72.529 79.1662 59.2275C79.1662 45.926 68.3833 35.1431 55.0818 35.1431C41.7803 35.1431 30.9973 45.926 30.9973 59.2275C30.9973 72.529 41.7803 83.312 55.0818 83.312Z" fill="#FDB797"/>
<path opacity="0.1" d="M37.926 37.3201C37.926 37.3201 48.0766 57.9235 76.7092 45.9584L70.0429 35.5056L58.2257 31.2644L37.926 37.3201Z" fill="black"/>
<path d="M37.926 37.0181C37.926 37.0181 48.0766 57.6215 76.7092 45.6532L70.0429 35.2004L58.2257 30.9592L37.926 37.0181Z" fill="#333333"/>
<path d="M37.837 35.6217C38.5214 33.5031 39.7043 31.5796 41.2863 30.0129C46.0237 25.3296 53.7905 24.342 57.7741 19.002C58.7282 20.4841 57.9904 22.7629 56.3428 23.399C60.1595 23.3736 64.582 23.0396 66.74 19.9004C67.2733 21.142 67.4433 22.5094 67.2302 23.8438C67.0171 25.1781 66.4296 26.4246 65.5361 27.4383C68.9186 27.5973 72.5333 29.8873 72.7464 33.2666C72.8927 35.5184 71.4742 37.6493 69.631 38.9406C67.7879 40.2319 65.5425 40.8251 63.34 41.3101C56.909 42.7302 33.6403 48.673 37.837 35.6217Z" fill="#333333"/>
<path d="M30.9877 63.4068C32.2252 63.4068 33.2284 61.5258 33.2284 59.2054C33.2284 56.885 32.2252 55.0039 30.9877 55.0039C29.7503 55.0039 28.7471 56.885 28.7471 59.2054C28.7471 61.5258 29.7503 63.4068 30.9877 63.4068Z" fill="#FDB797"/>
<path d="M79.163 63.4068C80.4005 63.4068 81.4037 61.5258 81.4037 59.2054C81.4037 56.885 80.4005 55.0039 79.163 55.0039C77.9256 55.0039 76.9224 56.885 76.9224 59.2054C76.9224 61.5258 77.9256 63.4068 79.163 63.4068Z" fill="#FDB797"/>
<rect x="2.41406" y="2" width="10" height="2" transform="rotate(45 2.41406 2)" fill="#5700B8"/>
<rect x="103.414" y="102" width="10" height="2" transform="rotate(45 103.414 102)" fill="#5700B8"/>
<rect x="1" y="109.071" width="10" height="2" transform="rotate(-45 1 109.071)" fill="#5700B8"/>
<rect x="102" y="9.07104" width="10" height="2" transform="rotate(-45 102 9.07104)" fill="#5700B8"/>
<defs>
<linearGradient id="paint0_linear" x1="55.5" y1="111" x2="55.5" y2="0" gradientUnits="userSpaceOnUse">
<stop stop-color="#808080" stop-opacity="0.25"/>
<stop offset="0.54" stop-color="#808080" stop-opacity="0.12"/>
<stop offset="1" stop-color="#808080" stop-opacity="0.1"/>
</linearGradient>
</defs>
</svg>
