<svg width="100" height="100" viewBox="0 0 100 100" fill="none" xmlns="http://www.w3.org/2000/svg">
<path d="M72.9166 18.75C64.7916 18.75 56.0416 20.4167 50 25C43.9583 20.4167 35.2083 18.75 27.0833 18.75C21.0416 18.75 14.625 19.6667 9.24996 22.0417C6.20829 23.4167 4.16663 26.375 4.16663 29.75V76.75C4.16663 82.1667 9.24996 86.1667 14.5 84.8333C18.5833 83.7917 22.9166 83.3333 27.0833 83.3333C33.5833 83.3333 40.5 84.4167 46.0833 87.1667C48.5833 88.4167 51.4166 88.4167 53.875 87.1667C59.4583 84.375 66.375 83.3333 72.875 83.3333C77.0416 83.3333 81.375 83.7917 85.4583 84.8333C90.7083 86.2083 95.7917 82.2083 95.7917 76.75V29.75C95.7917 26.375 93.75 23.4167 90.7083 22.0417C85.375 19.6667 78.9583 18.75 72.9166 18.75ZM87.5 71.7917C87.5 74.4167 85.0833 76.3333 82.5 75.875C79.375 75.2917 76.125 75.0417 72.9166 75.0417C65.8333 75.0417 55.625 77.75 50 81.2917V33.3333C55.625 29.7917 65.8333 27.0833 72.9166 27.0833C76.75 27.0833 80.5416 27.4583 84.1667 28.25C86.0833 28.6667 87.5 30.375 87.5 32.3333V71.7917Z" fill="white"/>
<path d="M58.25 45.875C56.9167 45.875 55.7084 45.0417 55.2917 43.7083C54.75 42.0833 55.6667 40.2917 57.2917 39.7917C63.7084 37.7083 72 37.0417 79.625 37.9167C81.3334 38.125 82.5834 39.6667 82.375 41.375C82.1667 43.0833 80.625 44.3333 78.9167 44.125C72.1667 43.3333 64.7917 43.9583 59.2084 45.75C58.875 45.7917 58.5417 45.875 58.25 45.875ZM58.25 56.9583C56.9167 56.9583 55.7084 56.125 55.2917 54.7917C54.75 53.1667 55.6667 51.375 57.2917 50.875C63.6667 48.7917 72 48.125 79.625 49C81.3334 49.2083 82.5834 50.75 82.375 52.4583C82.1667 54.1667 80.625 55.4167 78.9167 55.2083C72.1667 54.4167 64.7917 55.0417 59.2084 56.8333C58.8951 56.9132 58.5733 56.9552 58.25 56.9583ZM58.25 68.0417C56.9167 68.0417 55.7084 67.2083 55.2917 65.875C54.75 64.25 55.6667 62.4583 57.2917 61.9583C63.6667 59.875 72 59.2083 79.625 60.0833C81.3334 60.2917 82.5834 61.8333 82.375 63.5417C82.1667 65.25 80.625 66.4583 78.9167 66.2917C72.1667 65.5 64.7917 66.125 59.2084 67.9167C58.8951 67.9965 58.5733 68.0385 58.25 68.0417Z" fill="white"/>
</svg>
