<svg width="147" height="89" viewBox="0 0 147 89" fill="none" xmlns="http://www.w3.org/2000/svg">
<g clip-path="url(#clip0)">
<path d="M10.1625 83.5116L18.8322 70.9728L10.1581 84.8755L10.1531 86.3021C9.53481 86.2968 8.9228 86.2766 8.31704 86.2413C8.31428 85.9174 9.05116 68.0947 9.01984 67.7723C9.06261 67.7601 9.0866 66.0867 9.10357 66.0134L0.0462646 52.3113L9.11329 64.7165L9.14033 65.0833L9.67823 51.2362L1.89251 37.0562L9.73981 48.8031C9.74273 48.6147 10.1112 20.1835 10.1149 20.0081C10.1171 20.1012 10.2862 42.6337 10.2875 42.7287L17.7336 33.659L10.2803 44.6775L10.2422 57.0706L17.1522 45.0864C8.52866 62.5635 10.4371 56.4476 10.2168 65.7838L20.2539 49.0965L10.2082 68.1878L10.1625 83.5116Z" fill="#D0CDE1"/>
<path d="M142.795 85.214L146.408 79.9888L142.793 85.7823L142.791 86.3768C142.533 86.3746 142.278 86.3662 142.026 86.3515C142.024 86.2165 142.332 78.7894 142.318 78.655C142.336 78.6499 142.346 77.9526 142.353 77.922L138.579 72.2121L142.357 77.3816L142.369 77.5344L142.593 71.764L139.348 65.8549L142.618 70.7501C142.62 70.6716 142.773 58.8236 142.775 58.7505C142.776 58.7893 142.846 68.1792 142.847 68.2187L145.95 64.4392L142.844 69.0309L142.828 74.1954L145.707 69.2013C142.114 76.4844 142.909 73.9357 142.817 77.8264L147 70.8724L142.814 78.8282L142.795 85.214Z" fill="#D0CDE1"/>
<path d="M73.2597 89C113.72 89 146.519 87.7065 146.519 86.1109C146.519 84.5152 113.72 83.2217 73.2597 83.2217C32.7995 83.2217 0 84.5152 0 86.1109C0 87.7065 32.7995 89 73.2597 89Z" fill="#D0CDE1"/>
<path d="M108.796 34.1238H25.1488V84.3224H108.796V34.1238Z" fill="#3F3D56"/>
<path d="M45.8503 34.124C45.7648 39.4064 43.6202 44.4433 39.8791 48.1486C36.1379 51.8539 31.0999 53.9308 25.8515 53.9313C25.6164 53.9313 25.3826 53.9272 25.1489 53.919V34.124H45.8503Z" fill="#5700B8"/>
<path d="M71.0643 84.3224H63.1086C63.408 83.503 63.9499 82.7957 64.6612 82.2961C65.3726 81.7965 66.2191 81.5286 67.0865 81.5286C67.9538 81.5286 68.8003 81.7965 69.5117 82.2961C70.223 82.7957 70.7649 83.503 71.0643 84.3224Z" fill="#5700B8"/>
<path d="M108.796 58.3572V75.2657C106.64 75.1596 104.606 74.2225 103.117 72.6487C101.628 71.0748 100.798 68.9848 100.798 66.8114C100.798 64.6381 101.628 62.548 103.117 60.9742C104.606 59.4003 106.64 58.4633 108.796 58.3572Z" fill="#5700B8"/>
<path d="M93.4295 52.3647H40.6606C39.2996 52.3647 38.1962 53.4754 38.1962 54.8455V54.8455C38.1962 56.2155 39.2996 57.3262 40.6606 57.3262H93.4295C94.7906 57.3262 95.8939 56.2155 95.8939 54.8455C95.8939 53.4754 94.7906 52.3647 93.4295 52.3647Z" fill="white"/>
<path d="M93.4295 62.1418H40.6606C39.2996 62.1418 38.1962 63.2525 38.1962 64.6226V64.6226C38.1962 65.9926 39.2996 67.1033 40.6606 67.1033H93.4295C94.7906 67.1033 95.8939 65.9926 95.8939 64.6226C95.8939 63.2525 94.7906 62.1418 93.4295 62.1418Z" fill="white"/>
<path d="M93.4293 71.9187H78.1293C76.7682 71.9187 75.6648 73.0294 75.6648 74.3994C75.6648 75.7695 76.7682 76.8801 78.1293 76.8801H93.4293C94.7904 76.8801 95.8938 75.7695 95.8938 74.3994C95.8938 73.0294 94.7904 71.9187 93.4293 71.9187Z" fill="white"/>
<path d="M122.061 15.4252C122.061 15.4252 124.361 16.3256 124.489 19.2841C124.617 22.2425 123.85 30.4746 123.85 30.4746C123.85 30.4746 126.661 34.5907 124.489 35.7483C122.317 36.906 122.061 31.1178 122.061 31.1178L119.505 18.8982C119.505 18.8982 121.039 15.2966 122.061 15.4252Z" fill="#A0616A"/>
<path d="M98.5487 24.9438C98.5487 24.9438 93.0539 28.5453 92.7984 25.7156C92.5428 22.8858 94.4596 11.8238 94.4596 11.8238C94.4596 11.8238 94.7151 7.06461 97.3986 8.22226C100.082 9.37991 96.6319 13.3673 96.6319 13.3673L97.0153 22.3712L99.571 22.2426L98.5487 24.9438Z" fill="#A0616A"/>
<path d="M107.366 28.2881C107.366 28.2881 90.4981 21.9853 91.3926 29.3171C92.2871 36.6488 96.6318 45.91 96.6318 45.91L98.1652 48.3539H101.36L99.3153 35.1053C99.3153 35.1053 106.599 39.2214 108.771 38.5782C108.771 38.5782 111.583 57.4864 112.605 58.9013C113.627 60.3162 115.416 77.4237 115.416 77.4237L117.077 79.4817H120.272V50.5406C120.272 50.5406 125.767 32.5328 121.55 31.6324C117.333 30.732 107.366 28.2881 107.366 28.2881Z" fill="#2F2E41"/>
<path d="M97.7819 46.6818C97.7819 46.6818 97.0152 45.2669 95.7374 46.6818C94.4595 48.0967 91.3927 49.7689 91.3927 49.7689C91.3927 49.7689 84.7478 51.3124 90.1148 52.5987C95.4818 53.8849 96.1207 52.5987 96.1207 52.5987C96.1207 52.5987 97.0152 52.8559 97.7819 53.1132C98.5486 53.3704 103.532 52.47 103.532 51.6983C103.532 50.9265 101.84 46.3142 101.153 47.0125C100.465 47.7108 97.7819 46.6818 97.7819 46.6818Z" fill="#2F2E41"/>
<path d="M117.322 78.2085C117.322 78.2085 115.438 76.6466 114.995 77.0929C114.552 77.5391 112.224 80.5513 112.224 80.5513C112.224 80.5513 106.018 85.3484 111.67 86.1294C117.322 86.9103 116.99 84.7906 116.99 84.7906H118.763C118.985 84.7906 121.977 83.4519 121.866 82.8941C121.756 82.3363 120.426 77.7877 119.982 78.1097C119.539 78.4316 117.322 78.2085 117.322 78.2085Z" fill="#2F2E41"/>
<path d="M100.21 10.5374C102.609 10.5374 104.554 8.57941 104.554 6.1641C104.554 3.74878 102.609 1.79077 100.21 1.79077C97.8103 1.79077 95.8651 3.74878 95.8651 6.1641C95.8651 8.57941 97.8103 10.5374 100.21 10.5374Z" fill="#A0616A"/>
<path d="M103.277 5.64966C103.277 5.64966 106.599 8.47946 108.899 8.47946C111.199 8.47946 105.577 13.7532 105.577 13.7532L100.593 9.25122L103.277 5.64966Z" fill="#A0616A"/>
<path d="M104.555 13.7532L104.455 12.7398C104.455 12.7398 106.982 8.2222 107.749 7.83632C108.516 7.45043 109.027 7.45044 109.027 7.45044C109.027 7.45044 111.583 4.74927 114.394 6.16416C117.205 7.57906 123.85 16.583 123.85 16.583C123.85 16.583 119.122 16.9688 119.761 20.699C119.761 20.699 124.489 32.9186 123.211 33.0472C121.933 33.1759 118.1 32.2755 114.138 34.0763C110.177 35.877 108.388 34.7194 108.388 34.7194L106.344 28.0308C106.344 28.0308 102.51 25.8441 102.638 23.9147L97.0791 26.4229L97.5902 21.6637L100.977 17.7406C100.977 17.7406 100.338 17.2261 104.555 13.7532Z" fill="#575A89"/>
<path d="M96.2134 6.63701C96.0407 6.83018 95.8243 6.97854 95.5824 7.06951C95.335 7.13976 95.0232 7.05362 94.9246 6.81461L95.1083 6.57393L94.5576 6.22944L94.7976 5.94601L94.354 5.46114L94.7041 5.18153L94.0375 4.70164C94.9014 3.28256 95.8358 1.8457 97.1998 0.904989C98.5638 -0.0357266 100.47 -0.369996 101.867 0.519794C102.593 0.98176 103.106 1.71498 103.517 2.47366C104.343 3.99945 105.071 5.48674 105.179 7.2212C104.66 6.71234 103.902 6.42558 103.383 5.91671C103.153 5.67118 102.893 5.45658 102.608 5.27825C102.065 4.97004 101.415 4.94277 100.807 4.80374C100.296 4.68683 99.9647 4.45493 99.578 4.1234C99.118 3.72902 99.0992 3.88151 98.6347 4.32554C97.8281 5.09657 97.021 5.86706 96.2134 6.63701Z" fill="#2F2E41"/>
</g>
<defs>
<clipPath id="clip0">
<rect width="147" height="89" fill="white"/>
</clipPath>
</defs>
</svg>
